STARTFONT 2.1
FONT -FontForge-Effects Eighty Bold-Bold-R-Normal--68-650-75-75-P-310-ISO10646-1
SIZE 65 75 75
FONTBOUNDINGBOX 29 68 0 -14
COMMENT "Generated by fontforge, http://fontforge.sourceforge.net"
COMMENT "Copyright 2013, 2017 Peter Hull. Licensed under SIL Open Font License 1.1"
STARTPROPERTIES 40
FOUNDRY "FontForge"
FAMILY_NAME "Effects Eighty Bold"
WEIGHT_NAME "Bold"
SLANT "R"
SETWIDTH_NAME "Normal"
ADD_STYLE_NAME ""
PIXEL_SIZE 68
POINT_SIZE 650
RESOLUTION_X 75
RESOLUTION_Y 75
SPACING "P"
AVERAGE_WIDTH 310
CHARSET_REGISTRY "ISO10646"
CHARSET_ENCODING "1"
FONTNAME_REGISTRY ""
CHARSET_COLLECTIONS "ISO10646-1"
FONT_NAME "EffectsEightyBold"
FACE_NAME "Effects Eighty Bold"
COPYRIGHT "Copyright 2013, 2017 Peter Hull. Licensed under SIL Open Font License 1.1"
FONT_VERSION "1.100"
FONT_ASCENT 54
FONT_DESCENT 14
UNDERLINE_POSITION -7
UNDERLINE_THICKNESS 4
X_HEIGHT 28
CAP_HEIGHT 40
RAW_ASCENT 800
RAW_DESCENT 200
NORM_SPACE 31
RELATIVE_WEIGHT 70
RELATIVE_SETWIDTH 50
SUPERSCRIPT_X 0
SUPERSCRIPT_Y 23
SUPERSCRIPT_SIZE 40
SUBSCRIPT_X 0
SUBSCRIPT_Y 5
SUBSCRIPT_SIZE 40
FIGURE_WIDTH 31
AVG_LOWERCASE_WIDTH 310
AVG_UPPERCASE_WIDTH 310
ENDPROPERTIES
CHARS 101
STARTCHAR space
ENCODING 32
SWIDTH 450 0
DWIDTH 31 0
BBX 1 1 0 0
BITMAP
00
ENDCHAR
STARTCHAR exclam
ENCODING 33
SWIDTH 450 0
DWIDTH 31 0
BBX 9 42 10 -1
BITMAP
3E00
7F00
FF00
FF80
FF00
7F00
3E00
7F00
FF00
FF80
FF00
7F00
3E00
7F00
FF00
FF80
7F00
7E00
7E00
7F00
FF80
FF00
7F00
7E00
0000
0000
0000
0000
0000
0000
0000
0000
0000
0000
0000
1400
7F00
FF00
FF80
FF00
7F00
3E00
ENDCHAR
STARTCHAR quotedbl
ENCODING 34
SWIDTH 450 0
DWIDTH 31 0
BBX 19 18 5 23
BITMAP
3E0F80
7F1FC0
FF3FC0
FF3FE0
FF3FC0
7F1FC0
3E0F80
7F1FC0
FF3FC0
FF3FE0
FF3FC0
7F1FC0
3E0F80
7F1FC0
FF3FE0
FF3FE0
FF1FC0
7E1FC0
ENDCHAR
STARTCHAR numbersign
ENCODING 35
SWIDTH 450 0
DWIDTH 31 0
BBX 29 42 0 -1
BITMAP
01F07C00
03F8FE00
07F9FF00
07F9FF00
07F9FE00
03F8FE00
01F07C00
03F8FE00
07F9FE00
07F9FF00
07F9FE00
03F8FE00
3FFFFFE0
7FFFFFF0
FFFFFFF8
FFFFFFF8
FFFFFFF0
7FFFFFF0
19F57D40
03F8FE00
07F9FF00
07F9FF00
03F8FE00
1DF57D40
7FFFFFF0
FFFFFFF0
FFFFFFF8
FFFFFFF8
FFFFFFF0
3FFFFFE0
03F8FE00
07F8FE00
07F9FF00
07F9FE00
03F8FE00
01F07C00
03F8FE00
07F8FE00
07F9FF00
07F9FE00
03F8FE00
01F07C00
ENDCHAR
STARTCHAR dollar
ENCODING 36
SWIDTH 450 0
DWIDTH 31 0
BBX 29 42 0 -1
BITMAP
000F8000
001FC000
003FC000
003FE000
001FC000
00AFA940
03FFFFF0
07FFFFF0
07FFFFF8
07FFFFF8
03FFFFF0
01FFFFE0
3E0F8000
7F1FC000
FF3FC000
FF3FE000
FF1FC000
7EFFA800
17FFFE00
07FFFE00
07FFFF00
07FFFE00
03FFFE00
01FFFDC0
001FC7F0
003FC7F0
003FEFF8
003FCFF8
001FC7F0
1CEFBBE0
7FFFFE00
FFFFFE00
FFFFFF00
FFFFFE00
7FFFFE00
3FFFFC00
001FC000
003FC000
003FE000
003FC000
001FC000
000F8000
ENDCHAR
STARTCHAR percent
ENCODING 37
SWIDTH 450 0
DWIDTH 31 0
BBX 29 42 0 -1
BITMAP
3FF01F80
FFF83FC0
FFF83FC0
FFF83FC0
FFF83FC0
3FF07F80
7FF0FE00
FFF8FE00
FFF9FE00
FFF9FF00
FFF8FE00
7FF8FE00
3DF3FC00
0007F000
0007F800
0007F800
0007F800
000FF000
001FC000
003FC000
003FC000
003FE000
001FC000
007FC000
00FF8000
00FE0000
00FF0000
00FF0000
00FF0000
01FE7FE0
03F8FFF0
07F9FFF8
07F9FFF8
07F9FFF8
03F8FFF0
05F07FE0
1FC0FFF0
1FE0FFF0
1FE1FFF8
1FE1FFF8
1FC0FFF0
0F807FE0
ENDCHAR
STARTCHAR ampersand
ENCODING 38
SWIDTH 450 0
DWIDTH 31 0
BBX 29 43 0 -2
BITMAP
0FFE0000
1FFF0000
1FFF0000
1FFF0000
1FFF0000
0FFE0000
7E1F8000
FF1FC000
FF3FE000
FF3FC000
FF1FC000
7E1F8000
0FFE0000
1FFF0000
1FFF0000
1FFF0000
1FFF0000
0FFE0000
03F003E0
07F807F0
07F80FF8
07F80FF8
07F807F0
03F007F0
7E0F9F80
FF1FFFC0
FF3FFFC0
FF3FFFC0
FF3FFFC0
7E1F9F80
7E007C00
FF00FE00
FF01FF00
FF01FF00
FF00FE00
7E00FE00
03FF83E0
03FFC7F0
07FFCFF8
07FFEFF8
07FFC7F0
03FFC7F0
00A50140
ENDCHAR
STARTCHAR quotesingle
ENCODING 39
SWIDTH 450 0
DWIDTH 31 0
BBX 11 13 10 28
BITMAP
0F80
1FE0
1FE0
1FE0
1FE0
0FC0
3F00
7F00
FF00
FF80
FF00
7F00
1400
ENDCHAR
STARTCHAR parenleft
ENCODING 40
SWIDTH 450 0
DWIDTH 31 0
BBX 14 42 10 -1
BITMAP
01F0
03F8
07FC
07FC
07F8
03F8
0FE0
1FC0
1FE0
1FE0
1FE0
0FC0
3F80
7F00
FF00
FF80
FF00
7F00
3E00
7F00
FF00
FF80
7F00
3E00
7F00
FF00
FF80
FF00
7F00
1F80
1FC0
1FE0
1FE0
1FE0
1FE0
0FE0
03F8
03F8
07FC
07F8
03F8
01F0
ENDCHAR
STARTCHAR parenright
ENCODING 41
SWIDTH 450 0
DWIDTH 31 0
BBX 14 42 5 -1
BITMAP
3E00
7F00
FF00
FF00
FF00
7F00
1F80
1FC0
1FE0
1FE0
1FE0
1FC0
0FF0
03F8
07F8
07FC
07F8
03F8
01F0
03F8
07F8
07FC
03F8
01F0
03F8
07F8
07FC
07F8
03F8
0FE0
1FC0
1FE0
1FE0
1FE0
1FC0
1F80
7F00
FF00
FF00
FF00
7F00
3E00
ENDCHAR
STARTCHAR asterisk
ENCODING 42
SWIDTH 450 0
DWIDTH 31 0
BBX 29 31 0 10
BITMAP
01F07C00
03F8FE00
07F9FF00
07F9FF00
07F9FE00
03F8FE00
00FFF800
00FFF800
00FFF800
00FFF800
00FFF800
00FFF000
3FFFFFE0
7FFFFFF0
FFFFFFF8
FFFFFFF8
FFFFFFF0
7FFFFFF0
18FFF940
00FFF800
00FFF800
00FFF800
00FFF800
00FFF000
01F8FC00
03F8FE00
07F9FE00
07F9FF00
07F9FE00
03F8FE00
00E03800
ENDCHAR
STARTCHAR plus
ENCODING 43
SWIDTH 450 0
DWIDTH 31 0
BBX 29 31 0 4
BITMAP
00050000
001FC000
003FC000
003FE000
003FC000
001FC000
000F8000
001FC000
003FC000
003FE000
003FC000
001FC000
18CFB9C0
7FFFFFF0
FFFFFFF0
FFFFFFF8
FFFFFFF8
7FFFFFF0
3FFFFFE0
001FC000
003FC000
003FE000
003FC000
001FC000
000F8000
001FC000
003FC000
003FE000
003FC000
001FC000
000F8000
ENDCHAR
STARTCHAR comma
ENCODING 44
SWIDTH 450 0
DWIDTH 31 0
BBX 13 25 8 -13
BITMAP
7FE0
FFF8
FFF8
FFF8
FFF8
FFF0
3DE0
FFF0
FFF8
FFF8
FFF8
FFF8
7FF0
03F0
07F8
07F8
07F8
07F8
07F0
1FC0
3FC0
3FE0
3FC0
1FC0
0F80
ENDCHAR
STARTCHAR hyphen
ENCODING 45
SWIDTH 450 0
DWIDTH 31 0
BBX 29 7 0 16
BITMAP
18C739C0
7FFFFFF0
FFFFFFF0
FFFFFFF8
FFFFFFF8
7FFFFFF0
3FFFFFE0
ENDCHAR
STARTCHAR period
ENCODING 46
SWIDTH 450 0
DWIDTH 31 0
BBX 14 13 5 -1
BITMAP
3FF0
7FF8
FFF8
FFFC
FFF8
7FF8
3FF0
7FF8
FFF8
FFFC
FFF8
7FF8
3FF0
ENDCHAR
STARTCHAR slash
ENCODING 47
SWIDTH 450 0
DWIDTH 31 0
BBX 23 42 3 -1
BITMAP
0000FC
0001FE
0001FE
0001FE
0001FE
0003FC
0007F0
0007F0
000FF0
000FF8
0007F0
0007F0
001FE0
003F80
003FC0
003FC0
003FC0
007F80
00FE00
01FE00
01FE00
01FF00
00FE00
03FE00
07FC00
07F000
07F800
07F800
07F800
03F000
1FC000
3FC000
3FC000
3FC000
1FC000
2F8000
FE0000
FF0000
FF0000
FF0000
FE0000
7C0000
ENDCHAR
STARTCHAR zero
ENCODING 48
SWIDTH 450 0
DWIDTH 31 0
BBX 29 42 0 -1
BITMAP
007FE000
00FFF800
00FFF800
00FFF800
00FFF800
05FFF600
1FE8DF80
1FE03FC0
1FE03FC0
1FE03FC0
1FC03FC0
1F801F80
3E0007E0
FF0007F0
FF000FF8
FF000FF8
FF0007F0
3E0003E0
7E0007F0
FF0007F0
FF000FF8
FF000FF8
7F0007F0
3E0003E0
7E0007F0
FF0007F0
FF000FF8
FF000FF8
7F0007F0
3F0007E0
1FC01F80
1FE03FC0
1FE03FC0
1FE03FC0
1FC03FC0
0FA9DF80
00FFF000
00FFF800
00FFF800
00FFF800
00FFF800
007FE000
ENDCHAR
STARTCHAR one
ENCODING 49
SWIDTH 450 0
DWIDTH 31 0
BBX 19 42 5 -1
BITMAP
01F000
03F800
07FC00
07F800
03F800
19F000
7FF800
FFF800
FFFC00
FFF800
7FF800
3FF000
03F800
07F800
07FC00
07F800
03F800
01F000
03F800
07F800
07FC00
07F800
03F800
01F000
03F800
07F800
07FC00
07F800
03F800
01F000
03F800
07F800
07FC00
07F800
03F800
19F500
7FFFC0
FFFFC0
FFFFE0
FFFFC0
7FFFC0
3FFF80
ENDCHAR
STARTCHAR two
ENCODING 50
SWIDTH 450 0
DWIDTH 31 0
BBX 29 42 0 -1
BITMAP
0FFFFF80
1FFFFFC0
1FFFFFC0
1FFFFFC0
1FFFFF80
3FFFEFE0
7F28C7F0
FF0007F8
FF000FF8
FF000FF0
7F0007F0
1C0003E0
000007F0
000007F8
00000FF8
000007F8
000007F0
00003BE0
0000FE00
0000FE00
0001FF00
0001FE00
0000FE00
00077C00
001FC000
003FC000
003FE000
003FC000
001FC000
01FF8000
03F80000
07F80000
07F80000
07F80000
03F80000
19F52940
7FFFFFF0
FFFFFFF0
FFFFFFF8
FFFFFFF8
7FFFFFF0
3FFFFFE0
ENDCHAR
STARTCHAR three
ENCODING 51
SWIDTH 450 0
DWIDTH 31 0
BBX 29 42 0 -1
BITMAP
3FFFFFE0
7FFFFFF0
FFFFFFF8
FFFFFFF8
FFFFFFF0
7FFFFFF0
18C57D40
0000FE00
0001FE00
0001FF00
0001FE00
0000FE00
000FFC00
001FC000
003FC000
003FE000
003FC000
001FE800
0005FE00
0000FE00
0001FF00
0001FE00
0000FE00
00007FE0
000007F0
000007F8
00000FF8
00000FF8
000007F0
180003E0
7E0007F0
FF0007F0
FF000FF8
FF000FF8
7F0007F0
3EC52BE0
03FFFE00
07FFFE00
07FFFF00
07FFFE00
03FFFE00
01FFFC00
ENDCHAR
STARTCHAR four
ENCODING 52
SWIDTH 450 0
DWIDTH 31 0
BBX 29 42 0 -1
BITMAP
000FFC00
001FFE00
003FFF00
003FFF00
001FFE00
007FFC00
00FEFE00
00FEFE00
00FFFF00
00FFFF00
00FFFE00
00FEFE00
01FC7C00
07F8FE00
07F9FF00
07F9FF00
03F8FE00
0FF07C00
1FC0FE00
1FE1FE00
1FE1FF00
1FE1FE00
1FC0FE00
1FE57D40
7FFFFFF0
FFFFFFF0
FFFFFFF8
FFFFFFF8
FFFFFFF0
3FFFFFE0
0000FE00
0000FE00
0001FF00
0001FE00
0000FE00
00007C00
0000FE00
0000FE00
0001FF00
0001FE00
0000FE00
00007C00
ENDCHAR
STARTCHAR five
ENCODING 53
SWIDTH 450 0
DWIDTH 31 0
BBX 29 43 0 -2
BITMAP
7FFFFFF0
FFFFFFF0
FFFFFFF8
FFFFFFF8
FFFFFFF0
7FFFFFE0
7E000000
FF000000
FF000000
FF000000
FF000000
7E000000
7FFFFC00
FFFFFE00
FFFFFF00
FFFFFF00
FFFFFE00
7FFFFC00
000003E0
000007F0
00000FF8
00000FF8
000007F0
000007F0
000003E0
000007F0
00000FF8
00000FF8
000007F0
000007F0
7E0003E0
FF0007F0
FF000FF8
FF000FF8
FF0007F0
7E0007F0
0FFFFF80
1FFFFFC0
1FFFFFC0
1FFFFFC0
1FFFFFC0
1FFFFF80
0528C600
ENDCHAR
STARTCHAR six
ENCODING 54
SWIDTH 450 0
DWIDTH 31 0
BBX 29 42 0 -1
BITMAP
000F8000
001FC000
003FC000
003FE000
003FC000
001FC000
007F0000
00FE0000
00FF0000
00FF0000
00FF0000
00FE0000
01FC0000
03F80000
07F80000
07F80000
07F80000
03F80000
07F8C600
1FFFFFC0
1FFFFFC0
1FFFFFC0
1FFFFFC0
3FFFFFE0
7FBDEFF0
FF0007F8
FF0007F8
FF000FF8
FF0007F0
7F0007F0
3E0003E0
FF0007F0
FF000FF8
FF000FF8
FF0007F0
7F18C7E0
1FFFFF80
1FFFFFC0
1FFFFFC0
1FFFFFC0
1FFFFFC0
0FFFFF80
ENDCHAR
STARTCHAR seven
ENCODING 55
SWIDTH 450 0
DWIDTH 31 0
BBX 29 42 0 -1
BITMAP
3FFFFFE0
7FFFFFF0
FFFFFFF8
FFFFFFF8
FFFFFFF0
7FFFFFF0
18C53FC0
00003FC0
00003FC0
00003FC0
00003FC0
00001FC0
00007F80
0000FE00
0001FF00
0001FF00
0000FE00
0003F800
0007F000
0007F800
0007F800
0007F800
0007F800
000FF000
001FE000
003FC000
003FC000
003FE000
001FC000
007F8000
00FE0000
00FF0000
00FF0000
00FF0000
00FE0000
00FC0000
03F80000
07F80000
07F80000
07F80000
03F80000
01F00000
ENDCHAR
STARTCHAR eight
ENCODING 56
SWIDTH 450 0
DWIDTH 31 0
BBX 29 43 0 -2
BITMAP
0FFFFF80
1FFFFFC0
1FFFFFC0
1FFFFFC0
1FFFFFC0
0FFFFF80
7E0003F0
FF0007F0
FF000FF8
FF000FF8
FF0007F0
7E0003F0
7E0003F0
FF0007F0
FF000FF8
FF000FF8
FF0007F0
7E0003F0
0FFFFF80
1FFFFFC0
1FFFFFC0
1FFFFFC0
1FFFFFC0
0FFFFF80
7E0003E0
FF0007F0
FF000FF8
FF000FF8
FF0007F0
7E0007F0
7E0003E0
FF0007F0
FF000FF8
FF000FF8
FF0007F0
7E0007F0
0FFFFF80
1FFFFFC0
1FFFFFC0
1FFFFFC0
1FFFFFC0
1FFFFF80
0528C600
ENDCHAR
STARTCHAR nine
ENCODING 57
SWIDTH 450 0
DWIDTH 31 0
BBX 29 42 0 -1
BITMAP
0FFFFF80
1FFFFFC0
1FFFFFC0
1FFFFFC0
1FFFFF80
3FFFEFE0
7F28C7F0
FF0007F8
FF000FF8
FF000FF8
7F0007F0
7E0003E0
7E0007F0
FF0007F0
FF000FF8
FF0007F8
FF0007F0
3FBDEFE0
1FFFFF80
1FFFFFC0
1FFFFFC0
1FFFFFC0
1FFFFF80
0718FE00
0000FE00
0001FE00
0001FF00
0001FE00
0000FE00
0003FC00
0007F000
0007F800
0007F800
0007F800
0007F800
0007F000
001FC000
003FC000
003FE000
003FC000
001FC000
000F8000
ENDCHAR
STARTCHAR colon
ENCODING 58
SWIDTH 450 0
DWIDTH 31 0
BBX 14 30 5 -1
BITMAP
3FF0
7FF8
FFF8
FFFC
FFF8
7FF8
3FF0
7FF8
FFF8
FFFC
FFF8
7FF8
3FF0
0000
0000
0000
0000
3FF0
7FF8
FFF8
FFFC
FFF8
7FF8
3FF0
7FF8
FFF8
FFFC
FFF8
7FF8
3FF0
ENDCHAR
STARTCHAR semicolon
ENCODING 59
SWIDTH 450 0
DWIDTH 31 0
BBX 14 42 5 -13
BITMAP
3FF0
7FF8
FFF8
FFFC
FFF8
7FF8
3FF0
7FF8
FFF8
FFFC
FFF8
7FF8
3FF0
0000
0000
0000
0000
3FF0
7FF8
FFF8
FFFC
FFF8
7FF8
3FF0
7FF8
FFF8
FFFC
FFF8
7FF8
3FF0
03F8
07F8
07FC
07F8
03F8
15F0
7F00
FF00
FF00
FF00
7F00
3E00
ENDCHAR
STARTCHAR less
ENCODING 60
SWIDTH 450 0
DWIDTH 31 0
BBX 24 42 0 -1
BITMAP
00007C
0000FE
0001FF
0001FF
0001FE
0005FE
001FE8
003FC0
003FE0
003FC0
001FC0
000F80
01F000
03F800
07F800
07F800
07F800
1BF800
7EA000
FF0000
FF0000
FF0000
7F0000
3EE000
03F800
07F800
07F800
07F800
03F800
01F700
001FC0
003FC0
003FE0
003FC0
001FC0
000FA8
0000FE
0000FE
0001FF
0001FE
0000FE
00007C
ENDCHAR
STARTCHAR equal
ENCODING 61
SWIDTH 450 0
DWIDTH 31 0
BBX 29 19 0 10
BITMAP
3FFFFFE0
7FFFFFF0
FFFFFFF8
FFFFFFF8
FFFFFFF0
7FFFFFF0
18C52940
00000000
00000000
00000000
00000000
00000000
3FFFFFE0
7FFFFFF0
FFFFFFF8
FFFFFFF8
FFFFFFF0
7FFFFFF0
18C739C0
ENDCHAR
STARTCHAR greater
ENCODING 62
SWIDTH 450 0
DWIDTH 31 0
BBX 24 42 5 -1
BITMAP
3E0000
7F0000
FF0000
FF0000
FF0000
7FA000
17F800
07F800
07FC00
07F800
03F800
01F000
000F80
001FC0
003FE0
003FE0
003FC0
001FE8
0005FE
0000FE
0001FF
0001FF
0000FE
00077C
001FC0
001FC0
003FE0
003FE0
001FC0
00EF80
03F800
07F800
07FC00
07F800
03F800
15F000
7F0000
FF0000
FF0000
FF0000
7F0000
3E0000
ENDCHAR
STARTCHAR question
ENCODING 63
SWIDTH 450 0
DWIDTH 31 0
BBX 29 42 0 -1
BITMAP
0FFFFF80
1FFFFFC0
1FFFFFC0
1FFFFFC0
1FFFFF80
3FFFEFE0
7F28C7F0
FF0007F8
FF000FF8
FF000FF0
7F0007F0
1C0003E0
000007F0
000007F8
00000FF8
000007F8
000007F0
00003BE0
0000FE00
0000FE00
0001FF00
0001FE00
0000FE00
00077C00
001FC000
003FC000
003FE000
003FC000
001FC000
000F8000
00000000
00000000
00000000
00000000
00000000
00050000
001FC000
003FC000
003FE000
003FC000
001FC000
000F8000
ENDCHAR
STARTCHAR at
ENCODING 64
SWIDTH 450 0
DWIDTH 31 0
BBX 29 43 0 -2
BITMAP
03FFFE00
07FFFE00
07FFFF00
07FFFF00
07FFFE00
03FFFC00
0FC003F0
1FE007F0
1FE00FF8
1FE00FF8
1FE007F0
0FC003F0
7E1FFFF0
FF1FFFF0
FF3FFFF8
FF3FFFF8
FF1FFFF0
7E1FFFF0
7E7E03F0
FFFF07F0
FFFF0FF8
FFFF0FF8
FFFF07F0
7E7E07F0
7E1FFFE0
FF1FFFF0
FF3FFFF8
FF3FFFF8
FF3FFFF0
7E1FFFF0
0FC00000
1FC00000
1FE00000
1FE00000
1FE00000
0FC00000
03FFFFE0
03FFFFF0
07FFFFF8
07FFFFF8
07FFFFF0
03FFFFF0
00A52940
ENDCHAR
STARTCHAR A
ENCODING 65
SWIDTH 450 0
DWIDTH 31 0
BBX 29 42 0 -1
BITMAP
007FF000
00FFF800
00FFF800
00FFF800
00FFF000
01FFFC00
03F8FE00
07F8FE00
07F9FF00
07F9FF00
07F9FE00
03F8FE00
0FF07F80
1FC03FC0
1FE03FC0
1FE03FC0
1FC03FC0
1F801F80
7E0007F0
FF0007F0
FF000FF8
FF000FF8
FF0007F0
3EE52BE0
7FFFFFF0
FFFFFFF0
FFFFFFF8
FFFFFFF8
FFFFFFF0
3FFFFFE0
7E0007F0
FF0007F0
FF000FF8
FF000FF8
7F0007F0
7E0003E0
7E0007F0
FF0007F0
FF000FF8
FF000FF8
7F0007F0
3E0003E0
ENDCHAR
STARTCHAR B
ENCODING 66
SWIDTH 450 0
DWIDTH 31 0
BBX 29 43 0 -2
BITMAP
7FFFFE00
FFFFFE00
FFFFFF00
FFFFFF00
FFFFFE00
7FFFFC00
0FC003F0
1FE007F0
1FE00FF8
1FE00FF8
1FC007F0
0FC003F0
0FC003F0
1FE007F0
1FE00FF8
1FE00FF8
1FE007F0
0FC003F0
0FFFFF80
1FFFFFC0
1FFFFFC0
1FFFFFC0
1FFFFFC0
0FFFFF80
0FC003E0
1FC007F0
1FE00FF8
1FE00FF8
1FE007F0
0FC007F0
0FC003E0
1FC007F0
1FE00FF8
1FE00FF8
1FE007F0
1FC007F0
7FFFFC00
FFFFFE00
FFFFFF00
FFFFFF00
FFFFFE00
7FFFFE00
18A52800
ENDCHAR
STARTCHAR C
ENCODING 67
SWIDTH 450 0
DWIDTH 31 0
BBX 29 42 0 -1
BITMAP
0FFFFF80
1FFFFFC0
1FFFFFC0
1FFFFFC0
1FFFFFC0
1FFFFFC0
7F28C7F0
FF0007F0
FF000FF8
FF000FF8
7F0007F0
3E0003E0
7E000000
FF000000
FF000000
FF000000
7F000000
3E000000
7E000000
FF000000
FF000000
FF000000
7F000000
3E000000
7E000000
FF000000
FF000000
FF000000
FF000000
7E000140
7E0007F0
FF0007F0
FF000FF8
FF000FF8
7F0007F0
3F18C7E0
1FFFFF80
1FFFFFC0
1FFFFFC0
1FFFFFC0
1FFFFFC0
0FFFFF80
ENDCHAR
STARTCHAR D
ENCODING 68
SWIDTH 450 0
DWIDTH 31 0
BBX 29 42 0 -1
BITMAP
3FFFFC00
7FFFFE00
FFFFFF00
FFFFFF00
FFFFFE00
7FFFFE00
1FC53F80
1FC03FC0
1FE03FC0
1FE03FC0
1FE03FC0
1FC03F80
0F801FE0
1FC007F0
1FE007F8
1FE00FF8
1FE007F8
1FC007F0
0F8003E0
1FC007F0
1FE00FF8
1FE00FF8
1FC007F0
0F8003E0
1FC007F0
1FE007F0
1FE00FF8
1FE007F8
1FC007F0
0F801FC0
1FC03FC0
1FE03FC0
1FE03FC0
1FE03FC0
1FC03FC0
1FC53F80
7FFFFE00
FFFFFE00
FFFFFF00
FFFFFE00
7FFFFE00
3FFFFC00
ENDCHAR
STARTCHAR E
ENCODING 69
SWIDTH 450 0
DWIDTH 31 0
BBX 29 43 0 -2
BITMAP
7FFFFFF0
FFFFFFF0
FFFFFFF8
FFFFFFF8
FFFFFFF0
7FFFFFE0
7E000000
FF000000
FF000000
FF000000
FF000000
7E000000
7E000000
FF000000
FF000000
FF000000
FF000000
7E000000
7FFFFC00
FFFFFE00
FFFFFF00
FFFFFF00
FFFFFE00
7FFFFE00
7E000000
FF000000
FF000000
FF000000
FF000000
7E000000
7E000000
FF000000
FF000000
FF000000
FF000000
7E000000
7FFFFFE0
FFFFFFF0
FFFFFFF8
FFFFFFF8
FFFFFFF0
7FFFFFF0
18A52940
ENDCHAR
STARTCHAR F
ENCODING 70
SWIDTH 450 0
DWIDTH 31 0
BBX 29 42 0 -1
BITMAP
3FFFFFE0
7FFFFFF0
FFFFFFF8
FFFFFFF8
FFFFFFF0
7FFFFFF0
3EC52940
7F000000
FF000000
FF000000
FF000000
7E000000
7E000000
FF000000
FF000000
FF000000
FF000000
3EC73800
7FFFFE00
FFFFFE00
FFFFFF00
FFFFFE00
7FFFFE00
3FFFFC00
7F000000
FF000000
FF000000
FF000000
FF000000
7E000000
7E000000
FF000000
FF000000
FF000000
7F000000
7E000000
7E000000
FF000000
FF000000
FF000000
7F000000
3E000000
ENDCHAR
STARTCHAR G
ENCODING 71
SWIDTH 450 0
DWIDTH 31 0
BBX 29 43 0 -2
BITMAP
0FFFFF80
1FFFFFC0
1FFFFFC0
1FFFFFC0
1FFFFFC0
0FFFFF80
7E0003F0
FF0007F0
FF000FF8
FF000FF8
FF0007F0
7E0003E0
7E000000
FF000000
FF000000
FF000000
FF000000
7E000000
7E1FFFE0
FF1FFFF0
FF3FFFF8
FF3FFFF8
FF3FFFF0
7E1FFFF0
7E0003E0
FF0007F0
FF000FF8
FF000FF8
FF0007F0
7E0007F0
7E0003E0
FF0007F0
FF000FF8
FF000FF8
FF0007F0
7E0007F0
0FFFFF80
1FFFFFC0
1FFFFFC0
1FFFFFC0
1FFFFFC0
1FFFFF80
0528C600
ENDCHAR
STARTCHAR H
ENCODING 72
SWIDTH 450 0
DWIDTH 31 0
BBX 29 42 0 -1
BITMAP
3E0003E0
7F0007F0
FF000FF8
FF000FF8
FF0007F0
7E0007F0
7E0003F0
FF0007F0
FF000FF8
FF000FF8
FF0007F0
7E0003E0
7E0007F0
FF0007F0
FF000FF8
FF000FF8
7F0007F0
3EC73BE0
7FFFFFF0
FFFFFFF0
FFFFFFF8
FFFFFFF8
7FFFFFF0
3FFFFFE0
7F0007F0
FF0007F0
FF000FF8
FF000FF8
FF0007F0
7E0003E0
7E0007F0
FF0007F0
FF000FF8
FF000FF8
7F0007F0
7E0003E0
7E0007F0
FF0007F0
FF000FF8
FF000FF8
7F0007F0
3E0003E0
ENDCHAR
STARTCHAR I
ENCODING 73
SWIDTH 450 0
DWIDTH 31 0
BBX 19 42 5 -1
BITMAP
3FFF80
7FFFC0
FFFFE0
FFFFE0
FFFFC0
7FFFC0
19F500
03F800
07F800
07FC00
07F800
03F800
01F000
03F800
07F800
07FC00
07F800
03F000
03F000
03F800
07F800
07FC00
03F800
03F000
03F000
03F800
07FC00
07F800
03F800
01F000
03F800
07F800
07FC00
07F800
03F800
19F500
7FFFC0
FFFFC0
FFFFE0
FFFFC0
7FFFC0
3FFF80
ENDCHAR
STARTCHAR J
ENCODING 74
SWIDTH 450 0
DWIDTH 31 0
BBX 26 42 0 -1
BITMAP
007FFF80
00FFFFC0
00FFFFC0
00FFFFC0
00FFFFC0
00FFFF80
0038FE00
0000FE00
0001FF00
0001FF00
0001FE00
0000FE00
00007C00
0000FE00
0001FF00
0001FF00
0000FE00
0000FE00
00007C00
0000FE00
0001FF00
0001FF00
0000FE00
00007C00
0000FE00
0000FE00
0001FF00
0001FF00
0000FE00
18007C00
7E00FE00
FF00FE00
FF01FF00
FF01FF00
7F00FE00
3F18FC00
1FFFF000
1FFFF800
1FFFF800
1FFFF800
1FFFF800
0FFFE000
ENDCHAR
STARTCHAR K
ENCODING 75
SWIDTH 450 0
DWIDTH 31 0
BBX 29 42 0 -1
BITMAP
3E0003E0
7F0007F0
FF000FF8
FF000FF8
FF0007F0
7E002FF0
7E00FF40
FF00FE00
FF01FF00
FF01FE00
FF00FE00
7E007C00
7E0F8000
FF1FC000
FF3FC000
FF3FE000
FF3FC000
7EFFC000
7FFD0000
FFF80000
FFF80000
FFF80000
7FF80000
3FF70000
7E1FC000
FF3FC000
FF3FE000
FF3FC000
7F1FC000
3E0FB800
7E00FE00
FF00FE00
FF01FF00
FF01FE00
7F00FE00
7E007D40
7E0007F0
FF0007F0
FF000FF8
FF000FF8
7F0007F0
3E0003E0
ENDCHAR
STARTCHAR L
ENCODING 76
SWIDTH 450 0
DWIDTH 31 0
BBX 29 42 0 -1
BITMAP
3E000000
7F000000
FF000000
FF000000
FF000000
7E000000
3E000000
7F000000
FF000000
FF000000
FF000000
7E000000
7E000000
FF000000
FF000000
FF000000
FF000000
7E000000
7E000000
FF000000
FF000000
FF000000
FF000000
7E000000
7E000000
FF000000
FF000000
FF000000
FF000000
7E000000
7E000000
FF000000
FF000000
FF000000
FF000000
3EC52940
7FFFFFF0
FFFFFFF0
FFFFFFF8
FFFFFFF8
7FFFFFF0
3FFFFFE0
ENDCHAR
STARTCHAR M
ENCODING 77
SWIDTH 450 0
DWIDTH 31 0
BBX 29 42 0 -1
BITMAP
7E0003E0
FF0007F0
FF000FF8
FF000FF8
7F0007F0
3FF07FE0
7FF8FFF0
FFF9FFF8
FFF9FFF8
FFF9FFF8
7FF8FFF0
7FF0FFE0
7FFFF7F0
FFFFFFF0
FFFFFFF8
FFFFFFF8
7FFFF7F0
3E7FE3E0
7E1FC7F0
FF1FC7F0
FF3FCFF8
FF3FEFF8
FF3FC7F0
7F1FC7F0
3E0F83E0
7F0007F0
FF0007F8
FF000FF8
FF0007F8
7F0007F0
3C0003E0
7F0007F0
FF0007F8
FF000FF8
FF0007F0
7E0007F0
7E0003E0
FF0007F0
FF000FF8
FF000FF8
FF0007F0
7E0003E0
ENDCHAR
STARTCHAR N
ENCODING 78
SWIDTH 450 0
DWIDTH 31 0
BBX 29 42 0 -1
BITMAP
7E0003E0
FF0007F0
FF000FF8
FF000FF8
7F0007F0
3FF003E0
7FF807F0
FFF807F8
FFF80FF8
FFF80FF8
7FF807F0
7FF003E0
7FFE07F0
FFFF07F0
FFFF0FF8
FFFF07F8
7EFE07F0
3E7F83E0
7F1FC7F0
FF3FC7F8
FF3FEFF8
FF3FCFF8
FF3FC7F0
7E1FE3E0
7E0FF3F0
FF07FFF0
FF07FFF8
FF07FFF8
FF07FFF0
3E03FBE0
7E00FFF0
FF00FFF0
FF01FFF8
FF01FFF8
7F00FFF0
3E007FE0
7E0007F0
FF0007F0
FF000FF8
FF000FF8
7F0007F0
3E0003E0
ENDCHAR
STARTCHAR O
ENCODING 79
SWIDTH 450 0
DWIDTH 31 0
BBX 29 42 0 -1
BITMAP
0FFFFF80
1FFFFFC0
1FFFFFC0
1FFFFFC0
1FFFFFC0
1FFFFF80
3F18C7E0
7F0007F0
FF000FF8
FF000FF8
FF0007F0
7E0007F0
7E0003E0
FF0007F0
FF000FF8
FF000FF8
FF0007F0
7E0007F0
7E0003F0
FF0007F0
FF000FF8
FF000FF8
FF0007F0
7E0003F0
7E0003F0
FF0007F0
FF000FF8
FF000FF8
FF0007F0
7E0003E0
7E0007F0
FF0007F0
FF000FF8
FF000FF8
FF0007F0
7F29CFE0
1FFFFF80
1FFFFFC0
1FFFFFC0
1FFFFFC0
1FFFFFC0
0FFFFF80
ENDCHAR
STARTCHAR P
ENCODING 80
SWIDTH 450 0
DWIDTH 31 0
BBX 29 42 0 -1
BITMAP
3FFFFC00
FFFFFE00
FFFFFF00
FFFFFF00
FFFFFE00
3FFFFFE0
7EA52FF0
FF0007F8
FF000FF8
FF000FF8
FF0007F0
7E0003F0
7E0003F0
FF0007F0
FF000FF8
FF000FF8
FF0007F0
3EC73BE0
7FFFFE00
FFFFFE00
FFFFFF00
FFFFFE00
7FFFFE00
3FFFFC00
7F000000
FF000000
FF000000
FF000000
FF000000
7E000000
7E000000
FF000000
FF000000
FF000000
7F000000
7E000000
7E000000
FF000000
FF000000
FF000000
7F000000
3E000000
ENDCHAR
STARTCHAR Q
ENCODING 81
SWIDTH 450 0
DWIDTH 31 0
BBX 29 43 0 -2
BITMAP
0FFFFF80
1FFFFFC0
1FFFFFC0
1FFFFFC0
1FFFFFC0
0FFFFF80
7E0003F0
FF0007F0
FF000FF8
FF000FF8
FF0007F0
7E0003F0
7E0003F0
FF0007F0
FF000FF8
FF000FF8
FF0007F0
7E0003F0
7E0003F0
FF0007F0
FF000FF8
FF000FF8
FF0007F0
7E0007F0
7E0F83E0
FF1FC7F0
FF3FCFF8
FF3FEFF8
FF3FC7F0
7E1F87F0
7E007C00
FF00FE00
FF01FF00
FF01FF00
FF00FE00
7E00FE00
0FFFF3E0
1FFFFFF0
1FFFFFF8
1FFFFFF8
1FFFFFF0
1FFFF7F0
0528C140
ENDCHAR
STARTCHAR R
ENCODING 82
SWIDTH 450 0
DWIDTH 31 0
BBX 29 43 0 -2
BITMAP
7FFFFE00
FFFFFE00
FFFFFF00
FFFFFF00
FFFFFE00
7FFFFC00
7E0003F0
FF0007F0
FF000FF8
FF000FF8
FF0007F0
7E0003F0
7E0003F0
FF0007F0
FF000FF8
FF000FF8
FF0007F0
7E0003F0
7FFFFC00
FFFFFE00
FFFFFF00
FFFFFF00
FFFFFE00
7FFFFE00
7E007C00
FF00FE00
FF01FF00
FF01FF00
FF00FE00
7E00FE00
7E001F80
FF003FC0
FF003FC0
FF003FC0
FF003FC0
7E001F80
7E0003E0
FF0007F0
FF000FF8
FF000FF8
FF0007F0
7E0007F0
18000140
ENDCHAR
STARTCHAR S
ENCODING 83
SWIDTH 450 0
DWIDTH 31 0
BBX 29 43 0 -2
BITMAP
0FFFFF80
1FFFFFC0
1FFFFFC0
1FFFFFC0
1FFFFFC0
0FFFFF80
7E0003F0
FF0007F0
FF000FF8
FF000FF8
FF0007F0
7E0003E0
7E000000
FF000000
FF000000
FF000000
FF000000
7E000000
0FFFFF80
1FFFFFC0
1FFFFFC0
1FFFFFC0
1FFFFFC0
0FFFFF80
000003E0
000007F0
00000FF8
00000FF8
000007F0
000007F0
7E0003E0
FF0007F0
FF000FF8
FF000FF8
FF0007F0
7E0007F0
0FFFFF80
1FFFFFC0
1FFFFFC0
1FFFFFC0
1FFFFFC0
1FFFFF80
0528C600
ENDCHAR
STARTCHAR T
ENCODING 84
SWIDTH 450 0
DWIDTH 31 0
BBX 29 42 0 -1
BITMAP
3FFFFFE0
7FFFFFF0
FFFFFFF8
FFFFFFF8
FFFFFFF0
7FFFFFF0
18CFA940
001FC000
003FC000
003FE000
003FC000
001FC000
000F8000
001FC000
003FC000
003FE000
003FC000
001FC000
000F8000
001FC000
003FC000
003FE000
003FC000
001F8000
001F8000
001FC000
003FC000
003FE000
001FC000
001F8000
001F8000
003FC000
003FE000
003FC000
001FC000
000F8000
001FC000
003FC000
003FE000
003FC000
001FC000
000F8000
ENDCHAR
STARTCHAR U
ENCODING 85
SWIDTH 450 0
DWIDTH 31 0
BBX 29 42 0 -1
BITMAP
3E0003E0
7F0007F0
FF000FF8
FF000FF8
FF0007F0
7E0007F0
3E0003E0
7F0007F0
FF000FF8
FF000FF8
FF0007F0
7E0007F0
7E0003E0
FF0007F0
FF000FF8
FF000FF8
FF0007F0
7E0007F0
7E0003F0
FF0007F0
FF000FF8
FF000FF8
FF0007F0
7E0003F0
7E0003F0
FF0007F0
FF000FF8
FF000FF8
FF0007F0
7E0003E0
7E0007F0
FF0007F0
FF000FF8
FF000FF8
FF0007F0
7F29CFE0
1FFFFF80
1FFFFFC0
1FFFFFC0
1FFFFFC0
1FFFFFC0
0FFFFF80
ENDCHAR
STARTCHAR V
ENCODING 86
SWIDTH 450 0
DWIDTH 31 0
BBX 29 42 0 -1
BITMAP
3E0003E0
7F0007F0
FF000FF8
FF000FF8
FF0007F0
7E0007F0
7E0003F0
FF0007F0
FF000FF8
FF000FF8
7F0007F0
3E0003E0
7F0007F0
FF0007F8
FF000FF8
FF0007F8
7E0007F0
1F801FC0
1FC03FC0
1FE03FC0
1FE03FC0
1FE03FC0
1FC01F80
07F07F00
03F8FE00
07F9FE00
07F9FF00
07F9FE00
03F8FE00
01FDFC00
00FFF000
00FFF800
00FFF800
00FFF800
00FFF800
007FE000
001FC000
003FC000
003FE000
003FC000
001FC000
000F8000
ENDCHAR
STARTCHAR W
ENCODING 87
SWIDTH 450 0
DWIDTH 31 0
BBX 29 42 0 -1
BITMAP
3E0003E0
7F0007F0
FF000FF8
FF000FF8
FF0007F0
7E0007F0
3E0003E0
7F0007F0
FF0007F8
FF000FF8
FF0007F8
7F0007F0
3E0F83E0
7F1FC7F0
FF3FCFF8
FF3FEFF8
FF1FC7F0
7E0F83E0
7E1FC7F0
FF3FC7F0
FF3FEFF8
FF3FC7F8
7F1FC7F0
3E7FE3E0
7FFFFFF0
FFFFFFF8
FFFFFFF8
FFFFFFF0
7EFFF7F0
3FF9FFE0
7FF8FFF0
FFF9FFF8
FFF9FFF8
FFF9FFF8
7FF8FFF0
3FF07FE0
1FC01F80
1FE03FC0
1FE03FC0
1FE03FC0
1FC03FC0
0F801F80
ENDCHAR
STARTCHAR X
ENCODING 88
SWIDTH 450 0
DWIDTH 31 0
BBX 23 42 3 -1
BITMAP
7C00FC
FE01FE
FF01FE
FF01FE
FE01FE
FF83FC
2FC7F0
1FC7F0
3FCFF0
3FCFF8
3FC7F0
1F87F0
0FEFE0
07FF80
07FFC0
07FFC0
07FFC0
03FF80
00FE00
01FE00
01FF00
01FE00
00FE00
03FF00
07FF80
07FFC0
07FFC0
07FFC0
07FF80
0FEFE0
1FC7F0
3FCFF0
3FCFF8
3FCFF0
1FC7F0
2F83F0
FE00FC
FF01FE
FF01FE
FF01FE
FE01FE
7C00FC
ENDCHAR
STARTCHAR Y
ENCODING 89
SWIDTH 450 0
DWIDTH 31 0
BBX 29 42 0 -1
BITMAP
3E0003E0
7F0007F0
FF000FF8
FF000FF8
FF0007F0
7F800FF0
1FC01FC0
1FE03FC0
1FE03FC0
1FE03FC0
1FE03FC0
1FC01FC0
0FF07F00
03F8FE00
07F9FF00
07F9FF00
07F8FE00
01F8FC00
007FF000
00FFF800
00FFF800
00FFF800
00FFF800
00FFF000
007FE000
001FC000
003FC000
003FE000
003FC000
001FC000
000F8000
001FC000
003FC000
003FE000
003FC000
001FC000
000F8000
001FC000
003FE000
003FC000
001FC000
000F8000
ENDCHAR
STARTCHAR Z
ENCODING 90
SWIDTH 450 0
DWIDTH 31 0
BBX 23 42 3 -1
BITMAP
7FFFFC
FFFFFE
FFFFFE
FFFFFE
FFFFFE
FFFFFC
28C7F0
0007F0
000FF0
000FF8
000FF0
0007F0
001FE0
003F80
003FC0
003FC0
003FC0
007F00
00FE00
01FE00
01FE00
01FF00
01FE00
00FE00
01FC00
07F000
07F800
07F800
07F800
03F000
1FC000
3FC000
3FC000
3FC000
1FC000
2FCE70
FFFFFC
FFFFFE
FFFFFE
FFFFFE
FFFFFE
7FFFFC
ENDCHAR
STARTCHAR bracketleft
ENCODING 91
SWIDTH 450 0
DWIDTH 31 0
BBX 19 42 5 -1
BITMAP
3FFF80
7FFFC0
FFFFE0
FFFFE0
FFFFC0
7FFFC0
3EA500
7F0000
FF0000
FF0000
FF0000
7E0000
3E0000
7F0000
FF0000
FF0000
FF0000
7E0000
7E0000
7F0000
FF0000
FF0000
FF0000
7E0000
7E0000
FF0000
FF0000
FF0000
7F0000
7E0000
7E0000
FF0000
FF0000
FF0000
7F0000
3EA500
7FFFC0
FFFFC0
FFFFE0
FFFFC0
7FFFC0
3FFF80
ENDCHAR
STARTCHAR backslash
ENCODING 92
SWIDTH 450 0
DWIDTH 31 0
BBX 23 42 3 -1
BITMAP
7C0000
FE0000
FF0000
FF0000
FE0000
FF8000
2FC000
1FC000
3FC000
3FC000
3FC000
1F8000
0FF000
07F800
07F800
07F800
07F000
03FC00
00FE00
01FE00
01FF00
01FE00
01FE00
00FF00
007F80
003FC0
003FC0
003FC0
003FC0
001F80
0007F0
0007F0
000FF8
000FF0
0007F0
0003F0
0000FC
0001FE
0001FE
0001FE
0001FE
0000FC
ENDCHAR
STARTCHAR bracketright
ENCODING 93
SWIDTH 450 0
DWIDTH 31 0
BBX 19 42 5 -1
BITMAP
3FFF80
7FFFC0
FFFFE0
FFFFE0
FFFFC0
7FFFC0
18AF80
001FC0
003FE0
003FE0
001FC0
001FC0
000F80
001FC0
003FE0
003FE0
001FC0
001FC0
000F80
001FC0
003FE0
003FE0
001FC0
001F80
001FC0
001FC0
003FE0
003FE0
001FC0
000F80
001FC0
001FC0
003FE0
003FC0
001FC0
18AF80
7FFFC0
FFFFC0
FFFFE0
FFFFC0
7FFFC0
3FFF80
ENDCHAR
STARTCHAR asciicircum
ENCODING 94
SWIDTH 450 0
DWIDTH 31 0
BBX 29 19 0 22
BITMAP
00050000
001FC000
003FC000
003FE000
003FC000
001FC000
00EFA800
03F8FE00
07F8FE00
07F9FF00
07F9FE00
03F8FE00
19F07DC0
7E0007F0
FF0007F0
FF000FF8
FF000FF8
7F0007F0
3E0003E0
ENDCHAR
STARTCHAR underscore
ENCODING 95
SWIDTH 450 0
DWIDTH 31 0
BBX 29 7 0 -13
BITMAP
18A52940
7FFFFFF0
FFFFFFF0
FFFFFFF8
FFFFFFF8
7FFFFFF0
3FFFFFE0
ENDCHAR
STARTCHAR grave
ENCODING 96
SWIDTH 450 0
DWIDTH 31 0
BBX 11 13 8 28
BITMAP
3800
7E00
FF00
FF00
FF00
FE00
7F00
1FC0
3FC0
3FE0
3FC0
1FC0
0F80
ENDCHAR
STARTCHAR a
ENCODING 97
SWIDTH 450 0
DWIDTH 31 0
BBX 29 30 0 -1
BITMAP
01FFFC00
03FFFE00
07FFFF00
07FFFF00
07FFFE00
03FFFE00
00C53F80
00003FC0
00003FC0
00003FC0
00003FC0
0718DF80
1FFFFF80
1FFFFFC0
1FFFFFC0
1FFFFFC0
1FFFFFC0
1FFFFF80
7E001F80
FF003FC0
FF003FC0
FF003FC0
7F003FC0
3F18DFC0
1FFFF7F0
1FFFFFF0
1FFFFFF8
1FFFFFF8
1FFFFFF0
0FFFF3E0
ENDCHAR
STARTCHAR b
ENCODING 98
SWIDTH 450 0
DWIDTH 31 0
BBX 26 42 0 -1
BITMAP
3E000000
7F000000
FF000000
FF000000
FF000000
7E000000
3E000000
7F000000
FF000000
FF000000
FF000000
7F000000
3FFFFC00
7FFFFE00
FFFFFF00
FFFFFF00
FFFFFE00
7FFFFE00
3EC53F80
7F003FC0
FF003FC0
FF003FC0
FF003FC0
7E001F80
7E001F80
FF003FC0
FF003FC0
FF003FC0
FF003FC0
7E001F80
7E001F80
FF003FC0
FF003FC0
FF003FC0
FF003FC0
3EC53F80
7FFFFE00
FFFFFE00
FFFFFF00
FFFFFE00
7FFFFE00
3FFFFC00
ENDCHAR
STARTCHAR c
ENCODING 99
SWIDTH 450 0
DWIDTH 31 0
BBX 26 30 0 -1
BITMAP
0FFFEF80
1FFFFFC0
1FFFFFC0
1FFFFFC0
1FFFFFC0
1FFFFF80
3F18C600
7F000000
FF000000
FF000000
FF000000
7E000000
7E000000
FF000000
FF000000
FF000000
FF000000
7E000000
7E000000
FF000000
FF000000
FF000000
FF000000
7F29CE00
1FFFFF80
1FFFFFC0
1FFFFFC0
1FFFFFC0
1FFFFFC0
0FFFFF80
ENDCHAR
STARTCHAR d
ENCODING 100
SWIDTH 450 0
DWIDTH 31 0
BBX 26 42 0 -1
BITMAP
00001F80
00003FC0
00003FC0
00003FC0
00003FC0
00001F80
00001F80
00003FC0
00003FC0
00003FC0
00003FC0
00001F80
0FFFEF00
1FFFFFC0
1FFFFFC0
1FFFFFC0
1FFFFFC0
1FFFFF80
3F18DF80
7F003FC0
FF003FC0
FF003FC0
FF003FC0
7E001F80
7E001F80
FF003FC0
FF003FC0
FF003FC0
FF003FC0
7E001F80
7E001F80
FF003FC0
FF003FC0
FF003FC0
FF003FC0
7F29DF80
1FFFFF80
1FFFFFC0
1FFFFFC0
1FFFFFC0
1FFFFFC0
0FFFFF80
ENDCHAR
STARTCHAR e
ENCODING 101
SWIDTH 450 0
DWIDTH 31 0
BBX 29 30 0 -1
BITMAP
0FFFFF80
1FFFFFC0
1FFFFFC0
1FFFFFC0
1FFFFF80
3FFFEFE0
7F28C7F0
FF0007F8
FF000FF8
FF000FF8
7F0007F0
3EE52BE0
7FFFFFF0
FFFFFFF0
FFFFFFF8
FFFFFFF8
FFFFFFF0
3FFFFFE0
7E000000
FF000000
FF000000
FF000000
7F000000
7F29CE00
1FFFFF80
1FFFFFC0
1FFFFFC0
1FFFFFC0
1FFFFFC0
0FFFFF80
ENDCHAR
STARTCHAR f
ENCODING 102
SWIDTH 450 0
DWIDTH 31 0
BBX 24 42 0 -1
BITMAP
000FFC
001FFE
003FFF
003FFF
003FFE
001FFE
007F28
00FE00
00FF00
00FF00
00FF00
007E00
007E00
00FF00
00FF00
00FF00
00FE00
18FF38
7FFFFE
FFFFFE
FFFFFF
FFFFFE
7FFFFE
3FFFFC
00FE00
00FF00
00FF00
00FF00
00FE00
007E00
007E00
00FF00
00FF00
00FF00
00FE00
007C00
007E00
00FF00
00FF00
00FF00
00FE00
007C00
ENDCHAR
STARTCHAR g
ENCODING 103
SWIDTH 450 0
DWIDTH 31 0
BBX 26 43 0 -14
BITMAP
0FFFFF80
1FFFFFC0
1FFFFFC0
1FFFFFC0
1FFFFFC0
0FFFFF80
7E001F80
FF003FC0
FF003FC0
FF003FC0
FF003FC0
7E001F80
7E001F80
FF003FC0
FF003FC0
FF003FC0
FF003FC0
7E001F80
7E001F80
FF003FC0
FF003FC0
FF003FC0
FF003FC0
7E001F80
0FFFFF80
1FFFFFC0
1FFFFFC0
1FFFFFC0
1FFFFFC0
1FFFFF80
0528DF80
00003FC0
00003FC0
00003FC0
00003FC0
00001F80
01FFFE00
03FFFE00
07FFFF00
07FFFF00
07FFFE00
03FFFE00
00C52800
ENDCHAR
STARTCHAR h
ENCODING 104
SWIDTH 450 0
DWIDTH 31 0
BBX 26 42 0 -1
BITMAP
3E000000
7F000000
FF000000
FF000000
FF000000
7E000000
3E000000
7F000000
FF000000
FF000000
FF000000
7F000000
3FFFFC00
7FFFFE00
FFFFFF00
FFFFFF00
FFFFFE00
7FFFFE00
3EC53F80
7F003FC0
FF003FC0
FF003FC0
FF003FC0
7F001F80
3E001F80
7F003FC0
FF003FC0
FF003FC0
FF003FC0
7E001F80
7E001F80
FF003FC0
FF003FC0
FF003FC0
FF003FC0
7E001F80
7E001F80
FF003FC0
FF003FC0
FF003FC0
FF003FC0
3E001F80
ENDCHAR
STARTCHAR i
ENCODING 105
SWIDTH 450 0
DWIDTH 31 0
BBX 18 42 3 -1
BITMAP
03E000
07F000
07F800
07F800
07F800
07F000
01C000
000000
000000
000000
000000
000000
7FE000
FFF000
FFF800
FFF800
FFF800
FFF000
2BE000
07F000
07F800
07F800
07F800
03F000
03F000
07F800
07F800
07F800
07F800
03F000
03F000
07F800
07F800
07F800
07F000
2BFE00
FFFF80
FFFFC0
FFFFC0
FFFFC0
FFFFC0
7FFF00
ENDCHAR
STARTCHAR j
ENCODING 106
SWIDTH 450 0
DWIDTH 31 0
BBX 21 48 3 -7
BITMAP
0003E0
0007F0
000FF8
000FF8
000FF0
0007F0
000140
000000
000000
000000
000000
000000
0003E0
0007F0
000FF0
000FF8
000FF0
0007F0
0003E0
0007F0
000FF0
000FF8
000FF0
0007F0
0003E0
0007F0
000FF8
000FF8
0007F0
0007F0
0003E0
0007F0
000FF8
000FF8
0007F0
0003E0
0007F0
0007F0
000FF8
000FF8
0007F0
28C7E0
FFFF80
FFFFC0
FFFFC0
FFFFC0
FFFFC0
7FFF00
ENDCHAR
STARTCHAR k
ENCODING 107
SWIDTH 450 0
DWIDTH 31 0
BBX 23 42 3 -1
BITMAP
7C0000
FE0000
FF0000
FF0000
FF0000
FE0000
7C0000
FE0000
FF0000
FF0000
FF0000
FE0000
7C00FC
FE01FE
FF01FE
FF01FE
FF01FE
7E06FC
7E1FB0
FF3FC0
FF3FC0
FF3FC0
FE3FC0
7CDF80
FFF000
FFF800
FFF800
FFF800
FFF000
7FE600
FE1F80
FF3FC0
FF3FC0
FF3FC0
FE3FC0
7C1F30
FE00FC
FF01FE
FF01FE
FF01FE
FE01FE
7C00FC
ENDCHAR
STARTCHAR l
ENCODING 108
SWIDTH 450 0
DWIDTH 31 0
BBX 18 42 3 -1
BITMAP
7FE000
FFF000
FFF800
FFF800
FFF800
FFF000
2BE000
07F000
07F800
07F800
07F800
03F000
03F000
07F800
07F800
07F800
07F800
03F000
03F000
07F800
07F800
07F800
07F800
03F000
03F000
07F800
07F800
07F800
07F800
03F000
03F000
07F800
07F800
07F800
07F000
2BEE00
FFFF80
FFFFC0
FFFFC0
FFFFC0
FFFFC0
7FFF00
ENDCHAR
STARTCHAR m
ENCODING 109
SWIDTH 450 0
DWIDTH 31 0
BBX 29 30 0 -1
BITMAP
0FFFEF80
1FFFFFC0
1FFFFFC0
1FFFFFC0
1FFFFFC0
1FFFFF80
3F1FC7E0
7F1FC7F0
FF3FCFF8
FF3FEFF8
FF3FC7F0
7F1FC7F0
3E0F83E0
7F1FC7F0
FF3FCFF8
FF3FEFF8
FF3FC7F0
7E1FC7F0
7E0F83E0
FF1FC7F0
FF3FCFF8
FF3FEFF8
FF1FC7F0
7E1F83F0
7E1F87F0
FF3FC7F0
FF3FEFF8
FF3FCFF8
FF1FC7F0
3E0F83E0
ENDCHAR
STARTCHAR n
ENCODING 110
SWIDTH 450 0
DWIDTH 31 0
BBX 26 30 0 -1
BITMAP
3FFFFC00
7FFFFE00
FFFFFF00
FFFFFF00
FFFFFE00
7FFFFE00
3EC53F80
7F003FC0
FF003FC0
FF003FC0
FF003FC0
7F001F80
3E001F80
7F003FC0
FF003FC0
FF003FC0
FF003FC0
7E001F80
7E001F80
FF003FC0
FF003FC0
FF003FC0
FF003FC0
7E001F80
7E001F80
FF003FC0
FF003FC0
FF003FC0
FF003FC0
3E001F80
ENDCHAR
STARTCHAR o
ENCODING 111
SWIDTH 450 0
DWIDTH 31 0
BBX 29 30 0 -1
BITMAP
0FFFEF80
1FFFFFC0
1FFFFFC0
1FFFFFC0
1FFFFFC0
1FFFFF80
3F18C7E0
7F0007F0
FF000FF8
FF000FF8
FF0007F0
7E0007F0
7E0003E0
FF0007F0
FF000FF8
FF000FF8
FF0007F0
7E0003F0
7E0007F0
FF0007F0
FF000FF8
FF000FF8
FF0007F0
7F29CFE0
1FFFFF80
1FFFFFC0
1FFFFFC0
1FFFFFC0
1FFFFFC0
0FFFFF80
ENDCHAR
STARTCHAR p
ENCODING 112
SWIDTH 450 0
DWIDTH 31 0
BBX 26 42 0 -13
BITMAP
3FFFFC00
7FFFFE00
FFFFFF00
FFFFFF00
FFFFFE00
7FFFFE00
3EC53F80
7F003FC0
FF003FC0
FF003FC0
FF003FC0
7E001F80
7E001F80
FF003FC0
FF003FC0
FF003FC0
FF003FC0
7E001F80
7E001F80
FF003FC0
FF003FC0
FF003FC0
FF003FC0
3EC53F80
7FFFFE00
FFFFFE00
FFFFFF00
FFFFFE00
7FFFFE00
7FFFFC00
7E000000
FF000000
FF000000
FF000000
FF000000
7E000000
7E000000
FF000000
FF000000
FF000000
7F000000
3E000000
ENDCHAR
STARTCHAR q
ENCODING 113
SWIDTH 450 0
DWIDTH 31 0
BBX 26 42 3 -13
BITMAP
0FFFFF00
1FFFFF80
3FFFFFC0
3FFFFFC0
3FFFFF80
1FFFFF80
7E295F00
FE003F80
FF007FC0
FF007FC0
FF003F80
7E003F80
7E001F00
FE003F80
FF007FC0
FF007FC0
FF003F80
7E001F80
7E003F80
FF003F80
FF007FC0
FF007FC0
FE003F80
7E295F00
1FFFFF80
3FFFFF80
3FFFFFC0
3FFFFFC0
1FFFFF80
0FFFFF00
00003F80
00003F80
00007FC0
00007FC0
00003F80
00001F00
00003F80
00003F80
00007FC0
00007FC0
00003F80
00001F00
ENDCHAR
STARTCHAR r
ENCODING 114
SWIDTH 450 0
DWIDTH 31 0
BBX 26 30 0 -1
BITMAP
3E7FFF80
7FFFFFC0
FFFFFFC0
FFFFFFC0
FFFFFFC0
7EFFFF80
7FF8C600
FFF80000
FFF80000
FFF80000
FFF80000
3FF00000
7E000000
FF000000
FF000000
FF000000
FF000000
7E000000
7E000000
FF000000
FF000000
FF000000
7F000000
7E000000
7E000000
FF000000
FF000000
FF000000
7F000000
3E000000
ENDCHAR
STARTCHAR s
ENCODING 115
SWIDTH 450 0
DWIDTH 31 0
BBX 29 30 0 -1
BITMAP
0FFFFF80
1FFFFFC0
1FFFFFC0
1FFFFFC0
1FFFFFC0
1FFFFF80
7F28C600
FF000000
FF000000
FF000000
7F000000
3F18C600
1FFFFF80
1FFFFFC0
1FFFFFC0
1FFFFFC0
1FFFFFC0
0FFFFFC0
000007F0
000007F0
00000FF8
00000FF8
000007F0
0518C7E0
1FFFFF80
1FFFFFC0
1FFFFFC0
1FFFFFC0
1FFFFFC0
0FFFFF80
ENDCHAR
STARTCHAR t
ENCODING 116
SWIDTH 450 0
DWIDTH 31 0
BBX 26 42 0 -1
BITMAP
01F00000
03F80000
07F80000
07F80000
07F80000
03F80000
01F00000
03F80000
07F80000
07F80000
07F80000
03F80000
3FFFFC00
7FFFFE00
FFFFFF00
FFFFFF00
FFFFFE00
7FFFFE00
19F52800
03F80000
07F80000
07F80000
07F80000
03F00000
03F00000
03F80000
07F80000
07F80000
07F80000
03F00000
03F00000
07F80000
07F80000
07F80000
03F80000
01F9CE00
007FFF80
00FFFFC0
00FFFFC0
00FFFFC0
00FFFFC0
007FFF80
ENDCHAR
STARTCHAR u
ENCODING 117
SWIDTH 450 0
DWIDTH 31 0
BBX 29 30 0 -1
BITMAP
3E001F80
7F003FC0
FF003FC0
FF003FC0
FF003FC0
7F001F80
3E001F80
7F003FC0
FF003FC0
FF003FC0
FF003FC0
7E001F80
7E001F80
FF003FC0
FF003FC0
FF003FC0
FF003FC0
7E001F80
7E001F80
FF003FC0
FF003FC0
FF003FC0
FF003FC0
7F29DFC0
1FFFF7F0
1FFFFFF0
1FFFFFF8
1FFFFFF8
1FFFFFF0
0FFFF3E0
ENDCHAR
STARTCHAR v
ENCODING 118
SWIDTH 450 0
DWIDTH 31 0
BBX 29 30 0 -1
BITMAP
3E0003E0
7F0007F0
FF000FF8
FF000FF8
FF0007F0
7F801FF0
1FC03FC0
1FE03FC0
1FE03FC0
1FE03FC0
1FC01FC0
1FF07FC0
0FF8FF00
03F9FE00
07F9FF00
07F9FF00
07F8FE00
01FDFC00
00FFF000
00FFF800
00FFF800
00FFF800
00FFF800
007FE000
001FC000
003FC000
003FE000
003FC000
001FC000
000F8000
ENDCHAR
STARTCHAR w
ENCODING 119
SWIDTH 450 0
DWIDTH 31 0
BBX 29 30 0 -1
BITMAP
7E0003E0
FF0007F0
FF000FF8
FF000FF8
7F0007F0
3E0F83E0
7F1FC7F0
FF3FC7F8
FF3FEFF8
FF3FC7F0
7E1FC7F0
3E7FE3E0
7FFFFFF0
FFFFFFF8
FFFFFFF8
FFFFFFF8
7FFFF7F0
3FFDFFE0
7FF8FFF0
FFF8FFF8
FFF9FFF8
FFF9FFF8
7FF8FFF0
3FF07FE0
1FC01F80
1FE03FC0
1FE03FC0
1FE03FC0
1FC03FC0
0F801F80
ENDCHAR
STARTCHAR x
ENCODING 120
SWIDTH 450 0
DWIDTH 31 0
BBX 24 30 0 -1
BITMAP
3E007C
7F00FE
FF01FF
FF01FF
FF00FE
7F00FE
1FC3F8
1FE7F8
1FE7F8
1FE7F8
1FC7F8
0FBBF0
00FE00
00FF00
00FF00
00FF00
00FE00
077CC0
1FC3F0
1FE7F8
1FE7F8
1FE7F8
1FC7F8
1F83F8
7E00FE
FF00FE
FF01FF
FF01FE
7F00FE
3E007C
ENDCHAR
STARTCHAR y
ENCODING 121
SWIDTH 450 0
DWIDTH 31 0
BBX 29 42 0 -13
BITMAP
3E0003E0
7F0007F0
FF000FF8
FF000FF8
FF0007F0
7F801FF0
1FC03FC0
1FE03FC0
1FE03FC0
1FE03FC0
1FC01FC0
1FF07FC0
0FF8FF00
03F9FE00
07F9FF00
07F9FF00
07F8FE00
01FDFC00
00FFF000
00FFF800
00FFF800
00FFF800
00FFF800
007FE000
001FC000
003FC000
003FE000
003FC000
001FC000
007F8000
00FE0000
00FF0000
00FF0000
00FF0000
00FE0000
00FC0000
03F00000
07F80000
07F80000
07F80000
03F80000
01F00000
ENDCHAR
STARTCHAR z
ENCODING 122
SWIDTH 450 0
DWIDTH 31 0
BBX 24 30 0 -1
BITMAP
3FFFFC
7FFFFE
FFFFFF
FFFFFF
FFFFFE
7FFFFE
18C7F8
0007F8
0007F8
0007F8
0007F8
002FF0
00FFE0
00FF00
00FF00
00FF00
00FE00
0FFC00
1FC000
1FE000
1FE000
1FE000
1FC000
1FC528
7FFFFE
FFFFFE
FFFFFF
FFFFFE
7FFFFE
3FFFFC
ENDCHAR
STARTCHAR braceleft
ENCODING 123
SWIDTH 450 0
DWIDTH 31 0
BBX 21 42 5 -1
BITMAP
007FF0
00FFF8
00FFF8
00FFF8
00FFF8
01FDF0
03F8C0
07F800
07F800
07FC00
03F800
03F000
03F000
03F800
07FC00
07F800
03F800
1DF000
7F0000
FF0000
FF0000
FF0000
7F0000
3FF000
03F800
07F800
07FC00
07F800
03F800
01F000
03F800
07F800
07FC00
07F800
03F800
01F8C0
007FF0
00FFF8
00FFF8
00FFF8
00FFF8
007FF0
ENDCHAR
STARTCHAR bar
ENCODING 124
SWIDTH 450 0
DWIDTH 31 0
BBX 9 42 10 -1
BITMAP
3E00
7F00
FF00
FF80
FF00
7F00
3E00
7F00
FF00
FF80
FF00
7F00
3E00
7F00
FF00
FF80
7F00
7E00
0000
0000
0000
0000
0000
0000
7E00
7F00
FF80
FF00
7F00
7E00
7E00
7F00
FF80
FF00
7F00
3E00
7F00
FF00
FF80
FF00
7F00
3E00
ENDCHAR
STARTCHAR braceright
ENCODING 125
SWIDTH 450 0
DWIDTH 31 0
BBX 21 42 3 -1
BITMAP
7FF000
FFF800
FFF800
FFF800
FFF000
FFFC00
28FE00
00FE00
01FF00
01FE00
01FE00
00FC00
00FC00
00FE00
01FF00
01FE00
00FE00
007DC0
0007F0
0007F0
000FF8
000FF0
0007F0
007FE0
00FE00
01FE00
01FF00
01FE00
00FE00
007C00
00FE00
01FE00
01FF00
01FE00
00FE00
28FC00
FFF000
FFF800
FFF800
FFF800
FFF000
7FE000
ENDCHAR
STARTCHAR asciitilde
ENCODING 126
SWIDTH 450 0
DWIDTH 31 0
BBX 29 19 0 22
BITMAP
05180000
1FFE0000
1FFF0000
1FFF0000
1FFF0000
1FFE0000
1FFF0140
7E1FC7F0
FF3FC7F0
FF3FEFF8
FF3FCFF8
7F1FC7F0
3E0FC7E0
0003FF80
0007FFC0
0007FFC0
0007FFC0
0007FFC0
0003FF80
ENDCHAR
STARTCHAR exclamdown
ENCODING 161
SWIDTH 450 0
DWIDTH 31 0
BBX 11 42 10 -1
BITMAP
3F80
7FE0
FFE0
FFE0
FFE0
7FC0
1700
0000
0000
0000
0000
0000
0000
0000
0000
0000
0000
0000
3FC0
7FE0
FFE0
FFE0
FFE0
7FC0
7FC0
7FE0
FFE0
FFE0
7FE0
7FC0
7FC0
7FE0
FFE0
FFE0
7FE0
3FC0
7FC0
FFE0
FFE0
FFE0
7FE0
3F80
ENDCHAR
STARTCHAR sterling
ENCODING 163
SWIDTH 450 0
DWIDTH 31 0
BBX 29 42 0 -1
BITMAP
007FFF80
00FFFFC0
00FFFFC0
00FFFFC0
00FFFFC0
00FFFFC0
03F8C7F0
07F807F0
07F80FF8
07F80FF8
03F807F0
01F003E0
03F80000
07F80000
07F80000
07F80000
03F80000
19F70000
7FFFC000
FFFFC000
FFFFE000
FFFFC000
7FFFC000
3FFF8000
03F80000
07F80000
07F80000
07F80000
03F80000
01F00000
03F80000
07F80000
07F80000
07F80000
03F80000
19F52940
7FFFFFF0
FFFFFFF0
FFFFFFF8
FFFFFFF8
7FFFFFF0
3FFFFFE0
ENDCHAR
STARTCHAR currency
ENCODING 164
SWIDTH 450 0
DWIDTH 31 0
BBX 29 43 0 -2
BITMAP
7E0007F0
FF0007F0
FF000FF8
FF000FF8
FF0007F0
7E0003E0
03FFFC00
07FFFE00
07FFFF00
07FFFF00
07FFFE00
03FFFC00
0FC01F80
1FE03FC0
1FE03FC0
1FE03FC0
1FE03FC0
0FC01F80
7E0003E0
FF0007F0
FF000FF8
FF000FF8
FF0007F0
7E0007F0
0FC01F80
1FC03FC0
1FE03FC0
1FE03FC0
1FE03FC0
0FC01F80
03FFFC00
03FFFE00
07FFFF00
07FFFF00
07FFFE00
03FFFE00
7E0003E0
FF0007F0
FF000FF8
FF000FF8
FF0007F0
7E0007F0
18000140
ENDCHAR
STARTCHAR yen
ENCODING 165
SWIDTH 450 0
DWIDTH 31 0
BBX 29 42 0 -1
BITMAP
3E0003E0
7F0007F0
FF000FF8
FF000FF8
FF0007F0
7E0007F0
17F0FD40
07F8FE00
07F9FF00
07F9FF00
07F8FE00
03F8FE00
3FFFFFE0
7FFFFFF0
FFFFFFF8
FFFFFFF8
FFFFFFF0
7FFFFFF0
18CFA940
001FC000
003FC000
003FE000
001FC000
1CEFA940
7FFFFFF0
FFFFFFF0
FFFFFFF8
FFFFFFF8
FFFFFFF0
3FFFFFE0
001FC000
003FC000
003FE000
003FC000
001FC000
000F8000
001FC000
003FC000
003FE000
003FC000
001FC000
000F8000
ENDCHAR
STARTCHAR dieresis
ENCODING 168
SWIDTH 450 0
DWIDTH 31 0
BBX 19 7 5 34
BITMAP
140500
7F1FC0
FF1FC0
FF3FE0
FF3FC0
7F1FC0
3E0F80
ENDCHAR
STARTCHAR .notdef
ENCODING -1
SWIDTH 500 0
DWIDTH 34 0
BBX 22 67 6 -13
BITMAP
FFFFFC
FFFFFC
FFFFFC
FFFFFC
FFFFFC
F8007C
F8007C
FFCFFC
FFCFFC
F8007C
F8007C
F8007C
FFFFFC
F80FFC
F80FFC
F80FFC
F8CFFC
F8CFFC
F8007C
F8007C
FFFFFC
FFFFFC
F8007C
F8007C
FFCFFC
FFCFFC
FFCC7C
F80C7C
F80C7C
FFFC7C
FFFC7C
F8007C
F8007C
FFFFFC
F8C07C
F8C07C
F8C07C
F8CC7C
F8FC7C
F8FC7C
F8007C
F8007C
FFFFFC
FFFFFC
FFFFFC
FFFFFC
F8007C
F8007C
F8FC7C
F8FC7C
F8FC7C
F8007C
F8007C
F8007C
FFFFFC
F8007C
F8007C
FFC3FC
FF87FC
FE1FFC
FC3FFC
F8007C
F8007C
FFFFFC
FFFFFC
FFFFFC
FFFFFC
ENDCHAR
ENDFONT
